# xmcd
# 
# Track frame offsets:
#     150
#     19492
#     34847
#     50812
#     66712
#     86367
#     102222
#     119925
#     133502
#     149725
#     163625
#     179112
#     194585
#     214597
#     235556
#     251810
#     282204
# 
# Disc length: 4403
# 
# Revision: 3
# Processed by: cddbd v1.5.2PL0 Copyright (c) Steve Scherf et al.
# Submitted via: BonkEnc v1.0.6
# 
DISCID=15113111
DTITLE=Mariah Carey - E=MC² (JP)
DYEAR=2008
DGENRE=R&B
TTITLE0=Migrate (Feat. T-Pain) (Produced By Nate "Danja" Hills)
TTITLE1=Touch My Body (Produced By C. "Tricky" Stewart and The-Dream)
TTITLE2=Cruise Control (Feat. Damian Marley) (Produced By Jermaine Dupri)
TTITLE3=I Stay In Love (Produced By Bryan-Michael Cox)
TTITLE4=Side Effects (Feat. Young Jeezy) (Produced By Scott Storch)
TTITLE5=I'm That Chick (Produced By Stargate)
TTITLE6=Love Story (Produced By Jermaine Dupri)
TTITLE7=I'll Be Lovin' U Long Time (Produced By Toomp)
TTITLE8=Last Kiss (Produced By Jermaine Dupri)
TTITLE9=Thanx 4 Nothin' (Produced By Jermaine Dupri)
TTITLE10=O.O.C. (Produced By Swizz Beatz)
TTITLE11=For The Record (Produced By Bryan-Michael Cox)
TTITLE12=Bye Bye (Produced By Stargate)
TTITLE13=I Wish You Well (Produced By James Poyser)
TTITLE14=Heat (JP Bonus Track) (Produced By Will.i.am)
TTITLE15=4Real4Real (Feat. Da Brat) (JP Bonus Track) (Produced By Bryan-Michael Cox)
TTITLE16=DATA
EXTD=
EXTT0=
EXTT1=
EXTT2=
EXTT3=
EXTT4=
EXTT5=
EXTT6=
EXTT7=
EXTT8=
EXTT9=
EXTT10=
EXTT11=
EXTT12=
EXTT13=
EXTT14=
EXTT15=
EXTT16=
PLAYORDER=
